<?xml version="1.0" standalone="no"?>
<!DOCTYPE svg PUBLIC "-//W3C//DTD SVG 20010904//EN"
 "http://www.w3.org/TR/2001/REC-SVG-20010904/DTD/svg10.dtd">
<svg version="1.0" xmlns="http://www.w3.org/2000/svg"
 width="300.000000pt" height="424.000000pt" viewBox="0 0 300.000000 424.000000"
 preserveAspectRatio="xMidYMid meet">
<metadata>
Created by potrace 1.10, written by Peter Selinger 2001-2011
</metadata>
<g transform="translate(0.000000,424.000000) scale(0.100000,-0.100000)"
fill="#ffffff" stroke="none">
<path d="M130 4115 c-29 -31 -25 -87 14 -171 25 -54 27 -66 21 -139 -8 -96 -4
-100 95 -136 48 -17 82 -39 128 -81 69 -65 95 -78 153 -78 84 0 131 52 133
146 0 46 -10 72 -78 211 -43 87 -86 173 -95 192 -9 19 -28 43 -43 55 l-28 20
-69 -23 -70 -23 -57 26 c-69 32 -75 32 -104 1z m119 -29 c30 -9 57 -10 85 -4
116 26 128 21 171 -82 15 -36 45 -99 68 -140 61 -113 86 -194 74 -242 -13 -52
-57 -88 -108 -88 -41 0 -105 33 -131 67 -27 37 -80 72 -131 87 -29 8 -63 26
-75 39 -20 22 -22 30 -16 93 6 61 3 78 -20 136 -43 106 -35 169 19 152 11 -3
40 -11 64 -18z"/>
<path d="M558 4129 c-10 -5 -18 -21 -18 -35 0 -28 53 -138 111 -229 61 -97 72
-129 64 -197 -9 -76 9 -108 60 -108 51 0 85 17 138 68 75 73 87 103 87 225 0
70 5 116 15 140 21 52 19 84 -10 112 -29 30 -89 33 -155 10 -56 -20 -89 -19
-180 5 -86 23 -89 23 -112 9z m112 -34 c55 -20 127 -19 204 2 54 14 65 14 91
2 27 -13 30 -18 28 -59 -2 -25 -5 -97 -9 -160 -4 -96 -10 -123 -31 -165 -29
-58 -88 -110 -144 -127 -60 -17 -74 1 -74 100 0 76 -1 79 -56 172 -142 239
-143 282 -9 235z"/>
<path d="M2462 4124 c-18 -15 -23 -31 -25 -79 -2 -43 -12 -78 -35 -125 -46
-91 -112 -178 -145 -190 -36 -12 -31 -30 14 -52 50 -25 115 -22 179 8 197 92
262 109 385 101 83 -5 95 -3 111 14 14 16 15 28 8 76 -9 69 -9 131 1 193 11
71 2 75 -153 60 -71 -7 -151 -10 -178 -6 -134 19 -139 19 -162 0z m193 -20
c50 -3 122 -2 160 4 41 5 80 6 93 1 23 -9 23 -12 17 -82 -4 -41 -2 -92 4 -119
7 -30 8 -56 1 -72 -9 -24 -11 -25 -117 -24 -74 0 -124 -5 -158 -17 -54 -17
-59 -19 -155 -63 -105 -47 -134 -55 -173 -48 -45 8 -56 24 -30 45 73 60 152
209 161 304 6 68 28 92 77 82 17 -3 71 -8 120 -11z"/>
<path d="M2205 4119 c-27 -5 -93 -7 -146 -3 -82 5 -98 4 -113 -11 -9 -10 -16
-20 -14 -24 2 -3 16 -31 31 -62 18 -36 33 -90 42 -148 15 -98 34 -142 77 -174
24 -18 30 -18 58 -7 39 16 128 123 175 209 20 36 44 82 55 101 27 47 26 95 -2
114 -25 18 -83 19 -163 5z m137 -24 c22 -9 30 -44 15 -71 -82 -149 -119 -206
-172 -261 -70 -73 -84 -74 -125 -9 -23 37 -23 41 -36 131 -4 33 -8 62 -9 65
-8 24 -18 50 -31 73 -7 16 -14 37 -14 48 0 21 10 23 125 20 39 -1 93 3 120 8
52 9 98 8 127 -4z"/>
<path d="M1187 4099 c-60 -16 -79 -50 -101 -178 -30 -170 -114 -329 -195 -366
-43 -19 -44 -20 -41 -75 3 -52 16 -68 73 -94 29 -13 59 -29 68 -37 62 -58 71
-62 146 -75 158 -28 159 -28 182 -5 28 28 27 50 -11 134 -23 53 -33 91 -36
142 -3 63 0 78 33 154 21 48 44 123 53 172 15 86 15 87 -9 135 -36 72 -101
110 -162 93z m72 -35 c29 -11 44 -27 63 -62 22 -42 24 -54 17 -117 -5 -49 -19
-96 -45 -155 -36 -79 -39 -92 -39 -175 0 -77 4 -98 28 -149 17 -35 27 -71 25
-90 -3 -30 -5 -31 -48 -30 -25 0 -58 3 -75 6 -16 4 -47 7 -67 7 -28 1 -48 11
-85 43 -26 23 -67 50 -91 60 -84 37 -95 111 -22 148 79 40 164 212 194 395 12
72 27 105 54 120 35 18 43 18 91 -1z"/>
<path d="M1387 4103 c-12 -12 -7 -68 8 -87 19 -25 19 -94 0 -139 -20 -48 -19
-54 10 -82 22 -23 32 -25 118 -25 110 0 178 -18 233 -60 92 -71 127 -90 169
-90 75 0 96 51 57 140 -11 25 -25 86 -31 135 -13 110 -42 172 -93 199 -33 19
-42 19 -129 7 -71 -9 -116 -10 -184 -2 -104 13 -149 14 -158 4z m176 -27 c62
-4 134 -2 170 4 68 12 116 0 149 -37 20 -22 48 -115 48 -160 0 -19 9 -59 19
-91 41 -125 37 -147 -29 -145 -45 2 -70 15 -140 74 -55 46 -138 69 -256 69
-68 0 -84 3 -99 20 -17 19 -17 24 -2 87 15 63 15 69 -3 120 -17 48 -17 54 -2
62 9 5 21 7 26 6 6 -2 60 -6 119 -9z"/>
<path d="M2710 3726 c-61 -18 -236 -84 -282 -107 -45 -23 -72 -60 -63 -88 8
-26 81 -60 215 -101 133 -41 171 -60 235 -121 59 -56 84 -61 122 -23 25 25 26
28 18 112 -5 48 -9 130 -9 184 -1 110 -10 127 -75 146 -48 15 -103 14 -161 -2z
m132 -18 c70 -14 76 -26 84 -163 11 -217 11 -225 -10 -241 -29 -21 -42 -18
-89 24 -60 54 -118 89 -168 102 -86 21 -225 72 -249 90 -22 17 -23 20 -11 44
16 28 60 51 176 91 44 15 87 30 95 33 26 10 94 28 110 29 8 0 36 -4 62 -9z"/>
<path d="M1442 3721 c-65 -5 -77 -9 -98 -34 -34 -40 -31 -95 15 -264 22 -79
42 -147 46 -153 11 -17 41 -11 81 17 88 59 140 76 270 83 132 8 173 22 193 67
30 65 -4 112 -107 151 -35 13 -83 43 -116 72 -79 70 -106 75 -284 61z m181
-22 c21 -5 60 -30 87 -54 28 -25 88 -62 134 -84 90 -43 105 -64 83 -110 -18
-38 -55 -51 -164 -56 -115 -6 -186 -24 -253 -66 -79 -49 -86 -47 -109 24 -11
34 -22 74 -25 87 -6 31 -11 51 -30 119 -13 46 -13 58 -1 81 22 42 44 55 109
61 100 10 129 9 169 -2z"/>
<path d="M160 3647 c-40 -20 -49 -66 -32 -166 17 -98 20 -212 8 -287 -7 -41
-5 -53 9 -67 26 -27 51 -20 103 26 32 29 66 48 98 56 134 34 179 66 210 146
25 66 10 89 -75 115 -56 16 -75 29 -126 80 -84 86 -151 119 -195 97z m84 -32
c18 -9 60 -44 92 -78 49 -51 72 -66 127 -86 37 -13 70 -28 73 -33 12 -19 -8
-79 -37 -113 -25 -28 -49 -40 -125 -64 -70 -21 -105 -38 -134 -65 -22 -20 -47
-36 -55 -36 -22 0 -34 39 -24 75 14 47 10 131 -9 240 -29 158 -2 204 92 160z"/>
<path d="M2095 3651 c-85 -21 -136 -77 -113 -125 15 -34 35 -39 153 -39 113 0
163 15 191 58 16 25 16 30 3 54 -29 53 -134 76 -234 52z m188 -35 c14 -13 24
-32 22 -42 -2 -11 -4 -23 -4 -27 -4 -37 -251 -56 -284 -22 -48 48 51 113 174
114 56 1 70 -3 92 -23z"/>
<path d="M665 3513 c-83 -43 -89 -139 -11 -167 29 -10 97 13 129 45 24 25 28
35 23 62 -7 40 -48 77 -84 77 -15 -1 -40 -8 -57 -17z m109 -45 c18 -52 -27
-98 -98 -98 -44 0 -65 34 -45 76 18 36 54 55 99 52 28 -2 37 -9 44 -30z"/>
<path d="M2205 3446 c-13 -13 -27 -41 -30 -62 -12 -74 -35 -120 -101 -199 -36
-44 -74 -98 -85 -120 -24 -51 -24 -119 1 -172 22 -50 56 -64 104 -42 17 7 58
14 91 14 82 2 79 1 102 43 50 87 104 112 266 122 107 6 124 10 184 41 36 19
75 46 86 60 17 23 18 31 7 63 -13 41 -82 105 -144 134 -23 11 -78 28 -122 37
-80 16 -126 34 -202 80 -57 34 -123 34 -157 1z m167 -36 c42 -22 116 -49 165
-60 134 -32 175 -52 234 -114 59 -62 45 -100 -56 -151 -45 -22 -75 -29 -168
-36 -160 -12 -218 -37 -270 -116 -26 -42 -29 -43 -81 -43 -29 0 -72 -7 -95
-15 -49 -17 -67 -12 -86 25 -26 50 -25 112 2 169 14 29 27 50 30 47 3 -3 15 8
27 24 11 15 35 47 52 69 18 23 44 79 59 128 44 138 53 142 187 73z"/>
<path d="M2033 3453 c-13 -2 -39 -25 -60 -49 -49 -61 -75 -72 -206 -90 -141
-19 -206 -37 -282 -79 -33 -18 -76 -36 -97 -39 -40 -7 -48 -20 -48 -77 0 -21
-10 -59 -22 -84 -21 -42 -21 -48 -8 -73 26 -45 64 -48 153 -13 92 37 101 37
186 10 117 -38 171 -6 306 175 45 61 103 135 128 165 38 44 47 62 47 92 0 20
-6 41 -13 47 -16 14 -56 21 -84 15z m61 -39 c27 -26 16 -55 -45 -121 -19 -21
-68 -83 -109 -138 -121 -163 -166 -195 -258 -179 -26 4 -51 9 -57 10 -54 15
-85 14 -140 -6 -82 -30 -109 -34 -134 -21 -25 14 -27 38 -7 83 8 18 18 54 21
80 5 39 10 47 32 53 15 3 61 23 102 44 97 48 126 56 266 72 125 14 149 23 212
85 59 57 89 66 117 38z"/>
<path d="M768 3335 c-32 -18 -36 -49 -13 -82 37 -53 30 -129 -26 -277 -49
-127 -24 -159 80 -106 70 35 86 36 151 13 45 -16 49 -16 74 0 14 10 39 44 56
77 32 64 55 84 110 95 52 10 80 32 80 61 0 59 -37 86 -145 105 -46 9 -87 25
-129 51 -117 74 -186 92 -238 63z m147 -40 c28 -13 73 -37 100 -53 28 -15 79
-34 115 -42 94 -19 129 -47 115 -90 -6 -19 -26 -31 -63 -35 -34 -5 -70 -32
-92 -68 -65 -111 -59 -106 -109 -100 -91 12 -135 8 -184 -16 -78 -38 -82 -17
-27 134 31 83 36 160 16 209 -22 52 -20 75 7 85 29 11 61 5 122 -24z"/>
<path d="M573 3308 c-6 -7 -18 -30 -28 -50 -21 -46 -43 -61 -136 -88 -61 -18
-82 -30 -120 -69 -50 -52 -89 -123 -89 -164 0 -37 29 -49 98 -42 65 8 97 -2
151 -45 90 -73 150 -45 225 103 40 80 49 108 54 165 6 86 -9 132 -54 172 -37
32 -84 40 -101 18z m115 -78 c12 -25 22 -62 22 -87 0 -75 -75 -242 -127 -283
-37 -29 -70 -25 -131 18 -56 38 -57 38 -203 42 -29 0 -27 36 4 90 43 75 88
115 155 135 31 10 69 24 84 31 30 16 78 63 78 78 0 5 7 17 16 27 26 28 73 4
102 -51z"/>
<path d="M2823 3062 c-17 -9 -49 -30 -69 -47 l-38 -30 -145 -1 c-142 0 -175
-6 -211 -36 -52 -43 -65 -118 -31 -173 10 -16 48 -61 85 -99 53 -56 78 -93
122 -185 31 -64 63 -131 72 -150 24 -48 94 -117 137 -136 43 -17 117 -20 145
-5 11 6 24 27 29 48 13 51 35 560 27 637 -9 88 -33 162 -59 180 -27 19 -25 19
-64 -3z m72 -49 c23 -49 33 -235 23 -463 -4 -91 -8 -190 -9 -220 -4 -97 -32
-128 -108 -115 -86 14 -146 79 -220 237 -58 126 -110 204 -181 273 -85 83 -90
164 -12 214 39 26 67 29 223 22 81 -4 125 11 198 64 46 34 64 32 86 -12z"/>
<path d="M1178 2961 c-14 -11 -44 -44 -67 -74 -61 -79 -81 -85 -212 -61 -30 5
-41 2 -59 -16 -30 -30 -23 -93 23 -196 20 -44 50 -134 66 -199 36 -143 60
-175 138 -182 97 -8 155 49 209 206 44 129 59 160 129 252 66 87 99 145 91
165 -10 26 -52 34 -97 19 -23 -8 -55 -15 -71 -15 -35 0 -78 40 -78 73 0 25
-17 47 -36 47 -6 0 -22 -9 -36 -19z m64 -63 c30 -55 71 -68 153 -48 47 11 58
11 65 0 12 -19 4 -35 -65 -130 -87 -120 -105 -157 -147 -290 -18 -59 -33 -85
-69 -122 -42 -44 -49 -48 -93 -48 -86 0 -105 24 -141 186 -13 56 -35 126 -48
156 -48 102 -58 132 -52 160 8 35 35 43 103 30 74 -13 113 4 186 82 34 36 67
66 73 66 6 0 22 -19 35 -42z"/>
<path d="M1805 2875 c-26 -9 -65 -12 -111 -8 -45 3 -79 1 -92 -6 -12 -7 -37
-42 -56 -79 -19 -37 -57 -95 -84 -129 -48 -59 -61 -90 -96 -213 -10 -36 -42
-94 -91 -165 -59 -86 -75 -116 -73 -140 l3 -30 65 1 c69 2 182 36 455 139 373
141 413 179 366 344 -13 45 -21 96 -19 126 l3 50 -40 3 c-46 4 -65 17 -65 44
0 11 -13 33 -29 49 -33 33 -68 36 -136 14z m103 -15 c7 0 22 -21 35 -47 18
-40 29 -51 65 -63 40 -14 42 -16 42 -56 0 -22 7 -63 15 -90 18 -59 19 -143 2
-164 -13 -16 -76 -58 -117 -77 -94 -45 -242 -104 -345 -138 -38 -13 -117 -40
-175 -60 -58 -21 -125 -38 -150 -39 -67 -2 -64 22 15 137 71 105 78 118 107
222 20 71 60 143 101 181 12 12 36 48 52 80 49 100 58 106 140 99 49 -4 83 -2
115 9 25 8 54 13 65 10 11 -2 26 -4 33 -4z"/>
<path d="M137 2853 c-11 -10 -7 -101 8 -208 19 -134 19 -178 -5 -266 -28 -105
-26 -154 6 -186 l26 -26 142 7 c155 7 351 -6 453 -29 36 -9 74 -13 85 -9 33
10 68 78 68 131 0 40 -18 86 -100 262 -55 118 -108 223 -116 233 -27 29 -73
32 -132 9 -74 -30 -94 -27 -148 20 -47 40 -48 41 -105 34 -49 -6 -64 -4 -92
14 -34 21 -77 28 -90 14z m88 -38 c22 -8 65 -15 95 -15 47 0 61 -5 93 -31 48
-40 88 -45 163 -21 88 28 116 14 151 -78 9 -25 27 -62 40 -82 13 -21 23 -42
23 -48 0 -6 25 -61 56 -123 62 -125 67 -167 24 -227 -25 -35 -16 -35 -220 -5
-92 14 -151 16 -292 11 l-176 -6 -21 26 c-25 32 -27 81 -5 132 25 59 28 173
10 321 -10 73 -15 139 -12 147 7 17 20 17 71 -1z"/>
<path d="M2135 2795 c-31 -30 -31 -47 1 -151 36 -115 31 -178 -19 -259 -53
-87 -56 -114 -18 -173 35 -54 38 -83 16 -136 -14 -34 -14 -37 5 -56 24 -24 67
-25 159 -6 44 10 105 13 195 9 123 -4 134 -3 176 19 45 23 73 60 64 83 -3 7
-17 18 -31 26 -32 17 -114 142 -179 270 -107 216 -199 340 -277 378 -55 27
-63 26 -92 -4z m84 -19 c46 -24 133 -127 189 -223 28 -50 52 -94 52 -98 0 -4
23 -45 50 -92 28 -47 50 -87 50 -90 0 -11 66 -101 93 -127 29 -27 30 -30 16
-55 -23 -41 -68 -52 -199 -46 -75 3 -146 0 -202 -9 -48 -8 -96 -12 -107 -9
-26 7 -35 36 -20 64 16 31 6 102 -20 135 -29 37 -26 81 7 135 59 93 66 168 27
290 -37 118 -13 165 64 125z"/>
<path d="M1835 2193 c-11 -3 -102 -31 -201 -64 -126 -41 -215 -63 -288 -72
-113 -15 -149 -33 -144 -71 2 -12 18 -30 37 -41 59 -35 119 -95 139 -138 11
-23 25 -78 32 -122 14 -96 17 -101 85 -175 30 -32 64 -81 75 -109 12 -28 30
-53 40 -56 38 -12 128 43 155 95 9 17 22 66 29 110 8 45 23 94 33 110 10 15
52 55 94 88 128 101 143 133 137 295 -3 97 -4 99 -36 128 -29 26 -39 29 -100
28 -37 -1 -76 -3 -87 -6z m148 -25 c48 -25 52 -36 52 -147 0 -136 -22 -181
-125 -249 -86 -57 -123 -117 -140 -228 -10 -62 -17 -77 -53 -117 -68 -74 -106
-70 -141 15 -9 19 -29 49 -46 64 -51 48 -89 116 -96 170 -14 119 -65 214 -143
264 -13 8 -33 23 -45 33 l-21 17 22 19 c14 12 46 22 85 26 94 10 206 38 373
94 155 52 234 63 278 39z"/>
<path d="M970 2164 c-104 -45 -152 -155 -92 -210 24 -23 33 -26 93 -22 54 3
73 9 103 31 41 32 66 74 66 112 0 83 -83 127 -170 89z m118 -33 c27 -23 29
-86 4 -118 -46 -57 -142 -81 -190 -47 -31 21 -30 77 2 119 47 61 140 85 184
46z"/>
<path d="M2838 2130 c-75 -39 -88 -60 -88 -138 0 -116 66 -199 152 -190 l32 3
-1 175 c-1 203 1 199 -95 150z m72 -156 l0 -144 -26 0 c-38 0 -62 17 -83 58
-27 54 -34 102 -22 150 10 35 19 44 63 66 28 14 55 23 59 20 5 -3 9 -70 9
-150z"/>
<path d="M275 2110 c-132 -21 -161 -44 -151 -117 17 -122 17 -146 1 -243 -21
-126 -16 -207 15 -232 30 -25 61 -10 141 68 75 72 124 97 236 118 43 8 95 22
115 30 89 38 156 133 165 238 7 76 -9 102 -79 123 -64 20 -351 29 -443 15z
m410 -30 c68 -17 90 -43 88 -100 -3 -87 -67 -186 -141 -217 -20 -9 -82 -27
-137 -40 -116 -28 -157 -50 -240 -127 -33 -31 -67 -56 -76 -56 -44 0 -56 69
-35 203 19 116 20 159 4 226 -10 45 -9 53 7 70 20 24 61 38 130 47 28 3 52 8
55 11 9 10 295 -5 345 -17z"/>
<path d="M2577 1953 c-49 -26 -49 -26 -147 -13 -104 14 -223 9 -277 -10 -25
-9 -44 -30 -80 -92 -41 -69 -59 -89 -124 -134 -43 -30 -80 -62 -84 -72 -4 -9
-15 -62 -25 -117 -21 -111 -15 -137 34 -149 32 -8 60 3 126 54 82 62 220 125
355 161 161 43 234 77 294 137 66 66 86 136 60 211 -20 57 -58 64 -132 24z
m101 -15 c16 -16 15 -101 -2 -141 -37 -89 -131 -141 -371 -207 -44 -12 -111
-36 -150 -53 -68 -30 -207 -117 -220 -137 -3 -5 -20 -10 -36 -10 -47 0 -56 32
-36 130 17 86 42 132 87 155 45 23 124 109 151 164 13 27 33 54 45 59 44 21
140 34 204 28 171 -18 174 -18 225 3 58 23 86 26 103 9z"/>
<path d="M1103 1915 c-42 -18 -56 -47 -59 -120 -1 -33 -2 -69 -3 -80 -1 -11
-26 -63 -57 -115 -124 -209 -118 -360 14 -360 27 0 71 7 98 15 67 20 127 19
204 -6 85 -27 139 -20 175 22 43 52 36 80 -51 194 -64 85 -86 134 -110 244
-25 121 -78 192 -159 214 -11 4 -34 0 -52 -8z m75 -29 c61 -32 91 -84 121
-208 25 -102 51 -164 87 -203 44 -50 84 -118 84 -142 0 -13 -7 -35 -16 -48
-14 -21 -24 -25 -63 -25 -25 0 -64 5 -86 11 -119 31 -115 30 -196 9 -93 -24
-137 -25 -164 -4 -17 12 -20 27 -20 87 0 80 9 106 75 222 59 102 70 134 70
207 0 49 4 63 25 83 28 29 45 31 83 11z"/>
<path d="M839 1863 c-15 -9 -41 -41 -60 -72 -18 -31 -38 -66 -46 -78 -17 -28
-69 -55 -153 -78 -213 -58 -383 -242 -300 -325 23 -23 42 -24 119 -9 54 11 60
10 150 -25 103 -40 146 -44 197 -20 47 22 72 57 89 123 30 111 47 153 90 219
73 114 82 188 29 252 -30 35 -73 40 -115 13z m100 -36 c42 -52 30 -120 -41
-232 -22 -33 -52 -103 -70 -160 -35 -113 -70 -159 -129 -170 -34 -6 -59 0
-189 51 -42 16 -93 17 -140 4 -44 -13 -69 -5 -81 26 -11 30 6 67 57 131 36 44
176 129 194 118 5 -3 10 -2 10 3 0 4 24 14 53 22 101 25 128 45 177 128 62
106 115 131 159 79z"/>
<path d="M2794 1754 c-17 -8 -71 -49 -120 -90 -99 -83 -256 -167 -426 -229
-184 -65 -258 -113 -305 -193 -71 -121 3 -240 161 -258 32 -4 123 1 219 12
239 26 273 11 351 -149 52 -108 79 -142 126 -161 42 -17 72 -8 96 29 16 25 17
40 6 193 -19 267 -13 464 24 778 5 40 2 54 -11 67 -21 21 -80 22 -121 1z m98
-23 c12 -17 11 -43 -3 -173 -17 -148 -18 -219 -8 -751 1 -57 -2 -72 -19 -89
-18 -19 -24 -20 -50 -9 -44 18 -66 46 -115 146 -27 54 -59 103 -81 122 -20 17
-36 28 -36 25 0 -4 -4 -2 -8 5 -14 22 -102 29 -202 15 -52 -7 -140 -14 -195
-15 -115 -1 -164 16 -211 78 -61 80 -2 192 141 264 33 17 130 58 215 91 85 33
166 69 180 78 14 10 41 25 60 34 19 9 62 40 95 67 88 74 175 131 201 131 13 0
29 -9 36 -19z"/>
<path d="M124 1335 c-18 -45 -18 -54 7 -155 26 -105 28 -249 4 -339 -9 -35
-15 -79 -13 -100 l3 -36 79 -2 c92 -2 117 -15 223 -119 88 -85 94 -89 199
-125 167 -57 161 -56 202 -34 77 42 81 109 17 301 -24 75 -54 184 -66 242 -31
157 -53 193 -140 231 -69 31 -170 42 -255 29 -94 -15 -122 -4 -158 63 -25 45
-59 79 -79 79 -4 0 -15 -16 -23 -35z m91 -69 c33 -60 56 -67 203 -60 122 7
133 6 188 -17 102 -42 118 -70 169 -299 14 -63 37 -142 50 -176 50 -126 53
-215 8 -259 -23 -23 -86 -15 -203 26 -89 31 -101 39 -180 115 -105 101 -167
135 -239 133 -73 -3 -79 7 -57 88 27 103 31 224 11 313 -25 106 -30 181 -14
191 17 10 40 -10 64 -55z"/>
<path d="M1497 1211 c-29 -27 -64 -52 -78 -56 -15 -4 -67 4 -127 20 l-103 26
-64 -21 c-76 -25 -106 -21 -173 21 -74 47 -103 37 -115 -38 -8 -48 17 -165 63
-297 22 -66 45 -151 51 -190 6 -39 13 -80 15 -92 5 -30 50 -49 113 -48 134 1
196 52 271 224 43 98 69 139 147 237 150 189 175 263 87 263 -28 0 -45 -9 -87
-49z m113 5 c0 -25 -51 -106 -110 -176 -67 -79 -114 -148 -143 -211 -14 -30
-37 -81 -52 -113 -50 -106 -121 -156 -223 -156 -23 0 -52 5 -66 11 -26 12 -30
24 -42 114 -4 28 -29 118 -57 200 -54 163 -71 274 -45 308 12 16 17 15 83 -19
73 -36 125 -41 174 -15 28 15 109 13 158 -4 103 -36 155 -30 211 25 53 50 72
61 94 49 10 -5 18 -11 18 -13z"/>
<path d="M1727 1221 c-19 -21 -51 -69 -72 -107 -123 -226 -155 -279 -224 -369
-117 -151 -131 -175 -131 -217 0 -28 6 -41 23 -52 68 -45 190 -24 384 68 174
81 209 95 422 167 192 65 231 89 231 143 0 68 -32 78 -206 70 -111 -6 -140 -4
-177 10 -85 32 -127 102 -127 214 0 113 -56 147 -123 73z m88 -8 c4 -10 11
-51 16 -92 12 -101 42 -159 99 -191 43 -24 53 -25 208 -25 159 0 164 -1 182
-23 36 -44 -9 -88 -125 -125 -198 -63 -286 -95 -425 -159 -119 -55 -242 -107
-248 -106 -4 1 -14 -2 -23 -6 -9 -4 -47 -6 -85 -4 -62 3 -70 5 -83 29 -14 25
-13 30 19 82 18 30 56 84 84 121 108 139 127 168 187 286 33 67 72 139 86 159
44 65 93 90 108 54z"/>
<path d="M2437 802 c-120 -112 -185 -146 -543 -292 -137 -55 -277 -112 -311
-126 -86 -36 -123 -79 -123 -143 0 -63 32 -111 84 -129 30 -10 75 -10 205 -2
224 13 472 13 792 -2 298 -13 323 -10 352 40 18 30 18 36 3 110 -9 44 -16 115
-16 160 0 44 -4 92 -10 106 -11 30 -52 53 -111 62 -99 15 -147 61 -174 165
-20 77 -39 109 -65 109 -11 0 -49 -26 -83 -58z m95 11 c8 -10 24 -47 34 -83
26 -87 69 -132 149 -155 82 -22 131 -44 133 -58 0 -7 3 -57 6 -112 3 -55 11
-116 16 -135 17 -58 12 -95 -15 -124 -22 -24 -31 -26 -97 -26 -40 0 -140 5
-223 10 -198 12 -638 13 -795 1 -149 -12 -194 -4 -232 39 -34 37 -38 95 -8
132 17 23 114 78 135 78 5 0 61 22 124 49 64 28 172 72 241 99 240 95 349 156
450 250 30 28 58 51 61 52 3 0 13 -8 21 -17z"/>
<path d="M145 600 c-28 -30 -30 -36 -30 -113 1 -45 5 -118 9 -162 8 -74 7 -85
-18 -142 -14 -34 -26 -74 -26 -88 0 -24 3 -26 28 -21 79 16 229 29 412 35
l205 6 3 63 c4 80 -13 172 -36 194 -9 10 -63 35 -120 57 -65 24 -122 54 -158
82 -134 105 -145 112 -192 116 -42 4 -50 2 -77 -27z m158 -32 c26 -17 53 -38
60 -47 25 -34 132 -92 232 -125 88 -29 99 -45 110 -169 6 -61 4 -78 -6 -81 -8
-3 -77 -7 -154 -11 -77 -3 -151 -7 -165 -9 -14 -2 -65 -7 -115 -11 -50 -3 -99
-9 -110 -11 -43 -9 -48 8 -24 86 17 57 20 86 15 136 -3 35 -9 93 -12 129 -8
76 6 119 45 140 33 18 63 12 124 -27z"/>
<path d="M1095 464 c-123 -29 -213 -81 -265 -151 -40 -54 -67 -170 -45 -192
11 -12 67 -14 312 -12 282 2 299 3 314 21 21 24 12 72 -30 163 -35 77 -72 122
-124 148 -39 20 -123 32 -162 23z m161 -49 c41 -24 88 -89 118 -164 28 -68 32
-96 17 -106 -6 -3 -139 -6 -298 -8 l-288 -2 1 46 c1 25 10 61 19 80 23 45 100
118 144 137 102 43 230 51 287 17z"/>
</g>
</svg>
