<svg xmlns="http://www.w3.org/2000/svg" version="1.1" xmlns:xlink="http://www.w3.org/1999/xlink" xmlns:svgjs="http://svgjs.dev/svgjs" viewBox="0 0 800 800"><g stroke-width="3" stroke="hsl(0, 0%, 100%)" fill="none"><path d="M650.0543092040523 263.0601179006745C732.419624703148 402.9899079382619 630.589014439713 663.9182327275379 546.8375174760556 731.9904755195839C463.08602051239814 800.0627183116301 330.4124392775917 729.7366733400845 248.04712377849603 589.8068833024969C165.68180827940034 449.8770932649095 67.73250611673842 128.39972613120977 151.48400308039584 60.32748333916368C235.23550004405325 -7.744759452882477 567.6889937049566 123.13032786308702 650.0543092040523 263.0601179006745C732.419624703148 402.9899079382619 630.589014439713 663.9182327275379 546.8375174760556 731.9904755195839 "></path><path d="M635.3452286017459 271.11537456540964C712.8655255420713 402.814000483139 617.0249511764853 648.3936002848104 538.200012857749 712.4615935008538C459.37507453901253 776.5295867168973 334.50582161213606 710.3403679201484 256.98552467181065 578.641742002419C179.4652277314853 446.94311608468956 87.27764922545055 144.3761823117958 166.10258754418692 80.30818909575237C244.9275258629233 16.240195879709006 557.8249316614206 139.41674864768027 635.3452286017459 271.11537456540964C712.8655255420713 402.814000483139 617.0249511764853 648.3936002848104 538.200012857749 712.4615935008538 "></path><path d="M620.6361785170176 279.1706617477229C693.3114568985727 402.6381235455942 603.4609184308358 632.8689983596611 529.5625387570205 692.9327419997019C455.66415908320516 752.9964856397424 338.5992344642583 690.9440930177905 265.92395608270334 567.4766312199192C193.24867770114832 444.0091694220479 106.82282285174074 160.35266900995993 180.72120252555607 100.28892536991924C254.61958219937145 40.22518172987856 547.9609001354626 155.70319994985164 620.6361785170176 279.1706617477229C693.3114568985727 402.6381235455942 603.4609184308358 632.8689983596611 529.5625387570205 692.9327419997019 "></path><path d="M605.9270826559222 287.2259489300361C673.7573424787068 402.4622466080493 589.8968399088192 617.3443964345119 520.9250188799249 673.4038904985498C451.9531978510306 729.4633845625879 342.6926015400136 671.5478181154326 274.86234171722884 556.3115204374194C207.03208189444416 441.0752227594062 126.36795070166374 176.32915570812406 195.33977173055808 120.26966164408606C264.3115927594524 64.21016758004811 538.0968228331375 171.98965125202295 605.9270826559222 287.2259489300361C673.7573424787068 402.4622466080493 589.8968399088192 617.3443964345119 520.9250188799249 673.4038904985498 "></path><path d="M591.2180173124048 295.28123611234946C654.2032585764191 402.28636967050454 576.3327919043807 601.8197945093625 512.2875295204074 653.8750389973978C448.24226713643407 705.930283485433 346.7859991333469 652.1515432130747 283.8007578693325 545.1464096549196C220.81551660531812 438.1412760967644 145.91310906916488 192.30564240628814 209.95837145313817 140.25039791825293C274.0036338371115 88.19515343021766 528.2327760483905 188.27610255419432 591.2180173124048 295.28123611234946C654.2032585764191 402.28636967050454 576.3327919043807 601.8197945093625 512.2875295204074 653.8750389973978 "></path><path d="M576.5089367100984 303.33650803587363C634.6491594153424 402.1104774741707 562.7687286411531 586.2951773254243 503.65002490210077 634.3461722374568C444.53132116304846 682.3971671494894 350.87938146789105 632.7552530519276 292.73915876264704 533.9812836136307C234.59893605740302 435.20731417533364 165.45825217787694 208.28211384566328 224.57695591692925 160.23111893363068C283.69565965598156 112.18012402159815 518.3687140048545 204.56253859757663 576.5089367100984 303.33650803587363C634.6491594153424 402.1104774741707 562.7687286411531 586.2951773254243 503.65002490210077 634.3461722374568 "></path><path d="M561.7998713665811 311.39179521818687C615.0950755130548 401.9346005366258 549.2046806367146 570.770575400275 495.01253554258324 614.8173207363047C440.82039044845203 658.8640660723347 354.97277906122434 613.3589781495698 301.67757491475066 522.8161728311309C248.38237076827699 432.27336751269195 185.00341054537807 224.25860054382736 239.19555563950934 180.21185520779756C293.3877007336406 136.1651098717677 508.5046672201074 220.84898989974795 561.7998713665811 311.39179521818687C615.0950755130548 401.9346005366258 549.2046806367146 570.770575400275 495.01253554258324 614.8173207363047 "></path><path d="M547.0907449879076 319.4470824005002C595.5409305756109 401.758723599081 535.6405715971198 555.2459734751258 486.37498514790946 595.2884692351529C437.10939869869924 635.33096499518 359.0661156194014 593.962703247212 310.61593003169804 511.65106204863105C262.1657444439947 429.33942085005015 204.54850787772295 240.2350872419915 253.81409432693323 200.19259148196437C303.0796807761435 160.15009572193725 498.6405594002042 237.13544120191932 547.0907449879076 319.4470824005002C595.5409305756109 401.758723599081 535.6405715971198 555.2459734751258 486.37498514790946 595.2884692351529 "></path><path d="M532.3817254207574 327.5024001003916C575.9868924496905 401.58287717911435 522.0765693690485 539.7214020675544 477.7375415647592 575.7596482515789C433.39851376047 611.7978944356033 363.15955898910187 574.5664588624321 319.55439196016886 500.48598178370935C275.94922493123585 426.4055047049866 224.09371202159133 256.21160445773376 268.4327398258805 220.17335827370937C312.77176763016973 184.13511208968492 488.77655839182444 253.42192302166876 532.3817254207574 327.5024001003916C575.9868924496905 401.58287717911435 522.0765693690485 539.7214020675544 477.7375415647592 575.7596482515789 "></path><path d="M517.6725990420839 335.55767202391576C556.4327475122466 401.4069849827804 508.5124603294536 524.1967848836161 469.09999117008545 556.2307814916378C429.6875220107172 588.2647780996596 367.25289554727897 555.1701687012851 328.49274707711623 489.32085574242046C289.73259860695356 423.4715427835557 243.6388093539362 272.18807589710883 283.0512785133044 240.15407928908712C322.4637476726726 208.1200826810654 478.9124505719212 269.70835906505107 517.6725990420839 335.55767202391576C556.4327475122466 401.4069849827804 508.5124603294536 524.1967848836161 469.09999117008545 556.2307814916378 "></path><path d="M502.9635336985666 343.612959206229C536.878663609959 401.2311080452356 494.94841232501506 508.6721829584669 460.4625018105679 536.7019299904858C425.9765912961208 564.7316770225049 371.34629314061226 535.7738937989272 337.43116322921986 478.15574495992064C303.5160333178275 420.53759612091403 263.18396772143734 288.16456259527297 297.6698782358845 260.134815563254C332.1557887503317 232.10506853123496 469.04840378717427 285.99481036722244 502.9635336985666 343.612959206229C536.878663609959 401.2311080452356 494.94841232501506 508.6721829584669 460.4625018105679 536.7019299904858 "></path><path d="M488.25448361383826 351.6682463885423C517.3245949664603 401.0552311076908 481.3843795793656 493.1475810333177 451.82502770983945 517.1730784893339C422.2656758403133 541.1985759453502 375.4397059927346 516.3776188965693 346.3695946401126 466.9906341774208C317.29948328749055 417.6036494582723 282.72914134772753 304.1410492934371 312.2884932172537 280.1155518374208C341.84784508677984 256.0900543814045 459.18437226121637 302.28126166939376 488.25448361383826 351.6682463885423C517.3245949664603 401.0552311076908 481.3843795793656 493.1475810333177 451.82502770983945 517.1730784893339 "></path><path d="M473.5453724939538 359.7235335708556C497.77046528780545 400.879354170146 467.8202857985599 477.62297910816835 443.1874925739547 497.6442269881819C418.5546993493496 517.6654748681955 379.5330578097007 496.98134399421144 355.30796501584905 455.825523394921C331.0828722219974 414.66970279563054 302.2742539388615 320.11753599160124 326.9070471634666 300.0962881115877C351.53984038807175 280.0750402315741 449.3202797001021 318.56771297156513 473.5453724939538 359.7235335708556C497.77046528780545 400.879354170146 467.8202857985599 477.62297910816835 443.1874925739547 497.6442269881819 "></path><path d="M458.8363071504365 367.77885127074694C478.2163813855178 400.70350775017926 454.2562377941213 462.09840770059714 434.55000321443725 478.11540600460796C414.84376863475313 494.1324043086188 383.626455403034 477.5850996094316 364.2463811679527 444.6604431299993C344.86630693287134 411.7357866505669 321.8194123063626 336.09405320734345 341.52564688604673 320.0770549033326C361.2318814657308 304.0600565993218 439.45623291535514 334.8541947913146 458.8363071504365 367.77885127074694C478.2163813855178 400.70350775017926 454.2562377941213 462.09840770059714 434.55000321443725 478.11540600460796 "></path><path d="M444.12724180691913 375.8341231942711C458.66229748323013 400.5276155538454 440.6921897896828 446.57379051665885 425.9125138549197 458.58653924466694C411.13283792015665 470.5992879726751 387.7198529963673 458.18880944828464 373.1847973200563 433.4953170887104C358.6497416437453 408.8018247291361 341.3645706738638 352.0705246467185 356.1442466086268 340.05777591871043C370.9239225433899 328.0450271907023 429.5921861306082 351.1406308346969 444.12724180691913 375.8341231942711C458.66229748323013 400.5276155538454 440.6921897896828 446.57379051665885 425.9125138549197 458.58653924466694 "></path><path d="M429.4181612046128 383.88942563537347C439.10819832215344 400.3517538750896 427.1281265264552 431.04920385029857 417.2750092366132 439.057703002304C407.4218919467711 447.0662021543094 391.81323533091154 438.7925498047158 382.12319821337087 422.33022156499965C372.4331610958302 405.8678933252835 360.90971378257586 368.0470266036717 370.7628310724179 360.0385274516663C380.6159483622599 352.0300282996609 419.7281240870721 367.4270973956573 429.4181612046128 383.88942563537347C439.10819832215344 400.3517538750896 427.1281265264552 431.04920385029857 417.2750092366132 439.057703002304 "></path><path d="M414.70908060230636 391.94471281768676C419.5540991610767 400.17587693754484 413.5640632632276 415.5246019251493 408.6375046183066 419.528851501152C403.71094597338555 423.5331010771547 395.90661766545577 419.3962749023579 391.06159910668543 411.1651107824998C386.2165805479151 402.93394666264174 380.45485689128793 384.02351330183586 385.3814155362089 380.0192637258332C390.30797418112996 376.01501414983045 409.864062043536 383.7135486978286 414.70908060230636 391.94471281768676C419.5540991610767 400.17587693754484 413.5640632632276 415.5246019251493 408.6375046183066 419.528851501152 "></path></g></svg>